<mxfile host="app.diagrams.net" modified="2023-04-01T22:20:40.721Z" agent="Mozilla/5.0 (Windows NT 10.0; Win64; x64) AppleWebKit/537.36 (KHTML, like Gecko) Chrome/111.0.0.0 Safari/537.36" etag="fEQp2TuqKXbNx75zPVAv" version="21.1.2" type="github">
  <diagram name="PÃ¡gina-1" id="IQwKBOwFuOXja_GuWm37">
    <mxGraphModel dx="1147" dy="637" grid="1" gridSize="10" guides="1" tooltips="1" connect="1" arrows="1" fold="1" page="1" pageScale="1" pageWidth="827" pageHeight="1169" math="0" shadow="0">
      <root>
        <mxCell id="0" />
        <mxCell id="1" parent="0" />
        <mxCell id="MZcV8NC8XSPAtZuaTzx--11" style="edgeStyle=orthogonalEdgeStyle;rounded=0;orthogonalLoop=1;jettySize=auto;html=1;" parent="1" source="MZcV8NC8XSPAtZuaTzx--1" target="MZcV8NC8XSPAtZuaTzx--3" edge="1">
          <mxGeometry relative="1" as="geometry" />
        </mxCell>
        <mxCell id="MZcV8NC8XSPAtZuaTzx--1" value="" style="ellipse;whiteSpace=wrap;html=1;" parent="1" vertex="1">
          <mxGeometry x="520" width="120" height="60" as="geometry" />
        </mxCell>
        <mxCell id="MZcV8NC8XSPAtZuaTzx--2" value="INICIO" style="text;html=1;strokeColor=none;fillColor=none;align=center;verticalAlign=middle;whiteSpace=wrap;rounded=0;" parent="1" vertex="1">
          <mxGeometry x="550" y="15" width="60" height="30" as="geometry" />
        </mxCell>
        <mxCell id="MZcV8NC8XSPAtZuaTzx--3" value="" style="rhombus;whiteSpace=wrap;html=1;" parent="1" vertex="1">
          <mxGeometry x="535" y="130" width="90" height="70" as="geometry" />
        </mxCell>
        <mxCell id="MZcV8NC8XSPAtZuaTzx--4" value="esta enchufada" style="text;html=1;strokeColor=none;fillColor=none;align=center;verticalAlign=middle;whiteSpace=wrap;rounded=0;" parent="1" vertex="1">
          <mxGeometry x="550" y="150" width="60" height="30" as="geometry" />
        </mxCell>
        <mxCell id="MZcV8NC8XSPAtZuaTzx--6" value="" style="rounded=0;whiteSpace=wrap;html=1;" parent="1" vertex="1">
          <mxGeometry x="535" y="260" width="120" height="60" as="geometry" />
        </mxCell>
        <mxCell id="MZcV8NC8XSPAtZuaTzx--7" value="accionar tecla" style="text;html=1;strokeColor=none;fillColor=none;align=center;verticalAlign=middle;whiteSpace=wrap;rounded=0;" parent="1" vertex="1">
          <mxGeometry x="565" y="275" width="60" height="30" as="geometry" />
        </mxCell>
        <mxCell id="MZcV8NC8XSPAtZuaTzx--8" value="" style="rhombus;whiteSpace=wrap;html=1;" parent="1" vertex="1">
          <mxGeometry x="560" y="400" width="75" height="80" as="geometry" />
        </mxCell>
        <mxCell id="MZcV8NC8XSPAtZuaTzx--33" style="edgeStyle=orthogonalEdgeStyle;rounded=0;orthogonalLoop=1;jettySize=auto;html=1;" parent="1" source="MZcV8NC8XSPAtZuaTzx--9" edge="1">
          <mxGeometry relative="1" as="geometry">
            <mxPoint x="480" y="440" as="targetPoint" />
          </mxGeometry>
        </mxCell>
        <mxCell id="MZcV8NC8XSPAtZuaTzx--9" value="enciende foco" style="text;html=1;strokeColor=none;fillColor=none;align=center;verticalAlign=middle;whiteSpace=wrap;rounded=0;" parent="1" vertex="1">
          <mxGeometry x="570" y="425" width="60" height="30" as="geometry" />
        </mxCell>
        <mxCell id="MZcV8NC8XSPAtZuaTzx--13" value="" style="endArrow=none;html=1;rounded=0;" parent="1" edge="1">
          <mxGeometry width="50" height="50" relative="1" as="geometry">
            <mxPoint x="620" y="170" as="sourcePoint" />
            <mxPoint x="680" y="170" as="targetPoint" />
          </mxGeometry>
        </mxCell>
        <mxCell id="MZcV8NC8XSPAtZuaTzx--14" value="" style="endArrow=none;html=1;rounded=0;exitX=1;exitY=0;exitDx=0;exitDy=0;" parent="1" source="MZcV8NC8XSPAtZuaTzx--6" edge="1">
          <mxGeometry width="50" height="50" relative="1" as="geometry">
            <mxPoint x="630" y="220" as="sourcePoint" />
            <mxPoint x="680" y="170" as="targetPoint" />
          </mxGeometry>
        </mxCell>
        <mxCell id="MZcV8NC8XSPAtZuaTzx--16" value="" style="endArrow=none;html=1;rounded=0;" parent="1" edge="1">
          <mxGeometry width="50" height="50" relative="1" as="geometry">
            <mxPoint x="480" y="170" as="sourcePoint" />
            <mxPoint x="540" y="170" as="targetPoint" />
          </mxGeometry>
        </mxCell>
        <mxCell id="MZcV8NC8XSPAtZuaTzx--17" value="" style="rounded=0;whiteSpace=wrap;html=1;" parent="1" vertex="1">
          <mxGeometry x="360" y="200" width="120" height="60" as="geometry" />
        </mxCell>
        <mxCell id="MZcV8NC8XSPAtZuaTzx--18" value="enchufar" style="text;html=1;strokeColor=none;fillColor=none;align=center;verticalAlign=middle;whiteSpace=wrap;rounded=0;" parent="1" vertex="1">
          <mxGeometry x="390" y="215" width="60" height="30" as="geometry" />
        </mxCell>
        <mxCell id="MZcV8NC8XSPAtZuaTzx--19" value="" style="endArrow=none;html=1;rounded=0;" parent="1" edge="1">
          <mxGeometry width="50" height="50" relative="1" as="geometry">
            <mxPoint x="360" y="200" as="sourcePoint" />
            <mxPoint x="480" y="170" as="targetPoint" />
          </mxGeometry>
        </mxCell>
        <mxCell id="MZcV8NC8XSPAtZuaTzx--20" value="no" style="text;html=1;strokeColor=none;fillColor=none;align=center;verticalAlign=middle;whiteSpace=wrap;rounded=0;" parent="1" vertex="1">
          <mxGeometry x="480" y="150" width="60" height="30" as="geometry" />
        </mxCell>
        <mxCell id="MZcV8NC8XSPAtZuaTzx--21" value="si" style="text;html=1;strokeColor=none;fillColor=none;align=center;verticalAlign=middle;whiteSpace=wrap;rounded=0;" parent="1" vertex="1">
          <mxGeometry x="610" y="150" width="60" height="30" as="geometry" />
        </mxCell>
        <mxCell id="MZcV8NC8XSPAtZuaTzx--22" value="" style="endArrow=classic;html=1;rounded=0;entryX=0;entryY=1;entryDx=0;entryDy=0;" parent="1" target="MZcV8NC8XSPAtZuaTzx--6" edge="1">
          <mxGeometry width="50" height="50" relative="1" as="geometry">
            <mxPoint x="480" y="260" as="sourcePoint" />
            <mxPoint x="530" y="210" as="targetPoint" />
          </mxGeometry>
        </mxCell>
        <mxCell id="MZcV8NC8XSPAtZuaTzx--24" value="" style="endArrow=none;html=1;rounded=0;exitX=0.5;exitY=0;exitDx=0;exitDy=0;" parent="1" source="MZcV8NC8XSPAtZuaTzx--8" edge="1">
          <mxGeometry width="50" height="50" relative="1" as="geometry">
            <mxPoint x="550" y="370" as="sourcePoint" />
            <mxPoint x="600" y="320" as="targetPoint" />
          </mxGeometry>
        </mxCell>
        <mxCell id="MZcV8NC8XSPAtZuaTzx--34" value="no" style="text;html=1;strokeColor=none;fillColor=none;align=center;verticalAlign=middle;whiteSpace=wrap;rounded=0;" parent="1" vertex="1">
          <mxGeometry x="490" y="420" width="60" height="30" as="geometry" />
        </mxCell>
        <mxCell id="MZcV8NC8XSPAtZuaTzx--35" value="" style="rounded=0;whiteSpace=wrap;html=1;" parent="1" vertex="1">
          <mxGeometry x="360" y="410" width="120" height="60" as="geometry" />
        </mxCell>
        <mxCell id="MZcV8NC8XSPAtZuaTzx--36" value="cambiar foco" style="text;html=1;strokeColor=none;fillColor=none;align=center;verticalAlign=middle;whiteSpace=wrap;rounded=0;" parent="1" vertex="1">
          <mxGeometry x="390" y="425" width="60" height="30" as="geometry" />
        </mxCell>
        <mxCell id="MZcV8NC8XSPAtZuaTzx--40" value="" style="endArrow=classic;html=1;rounded=0;entryX=0;entryY=1;entryDx=0;entryDy=0;" parent="1" target="MZcV8NC8XSPAtZuaTzx--6" edge="1">
          <mxGeometry width="50" height="50" relative="1" as="geometry">
            <mxPoint x="360" y="410" as="sourcePoint" />
            <mxPoint x="410" y="360" as="targetPoint" />
          </mxGeometry>
        </mxCell>
        <mxCell id="MZcV8NC8XSPAtZuaTzx--41" value="funciona tecla" style="rhombus;whiteSpace=wrap;html=1;" parent="1" vertex="1">
          <mxGeometry x="270" y="510" width="90" height="90" as="geometry" />
        </mxCell>
        <mxCell id="MZcV8NC8XSPAtZuaTzx--43" value="" style="endArrow=none;html=1;rounded=0;exitX=0.5;exitY=0;exitDx=0;exitDy=0;" parent="1" source="MZcV8NC8XSPAtZuaTzx--41" edge="1">
          <mxGeometry width="50" height="50" relative="1" as="geometry">
            <mxPoint x="550" y="530" as="sourcePoint" />
            <mxPoint x="600" y="480" as="targetPoint" />
          </mxGeometry>
        </mxCell>
        <mxCell id="MZcV8NC8XSPAtZuaTzx--46" value="si" style="text;html=1;strokeColor=none;fillColor=none;align=center;verticalAlign=middle;whiteSpace=wrap;rounded=0;" parent="1" vertex="1">
          <mxGeometry x="490" y="530" width="60" height="30" as="geometry" />
        </mxCell>
        <mxCell id="MZcV8NC8XSPAtZuaTzx--47" value="" style="endArrow=none;html=1;rounded=0;exitX=1;exitY=0.5;exitDx=0;exitDy=0;" parent="1" source="MZcV8NC8XSPAtZuaTzx--41" edge="1">
          <mxGeometry width="50" height="50" relative="1" as="geometry">
            <mxPoint x="350" y="570" as="sourcePoint" />
            <mxPoint x="720" y="555" as="targetPoint" />
          </mxGeometry>
        </mxCell>
        <mxCell id="MZcV8NC8XSPAtZuaTzx--48" value="" style="endArrow=none;html=1;rounded=0;" parent="1" edge="1">
          <mxGeometry width="50" height="50" relative="1" as="geometry">
            <mxPoint x="630" y="440" as="sourcePoint" />
            <mxPoint x="720" y="440" as="targetPoint" />
          </mxGeometry>
        </mxCell>
        <mxCell id="MZcV8NC8XSPAtZuaTzx--49" value="si" style="text;html=1;strokeColor=none;fillColor=none;align=center;verticalAlign=middle;whiteSpace=wrap;rounded=0;" parent="1" vertex="1">
          <mxGeometry x="640" y="420" width="60" height="30" as="geometry" />
        </mxCell>
        <mxCell id="MZcV8NC8XSPAtZuaTzx--50" value="" style="endArrow=none;html=1;rounded=0;" parent="1" edge="1">
          <mxGeometry width="50" height="50" relative="1" as="geometry">
            <mxPoint x="210" y="550" as="sourcePoint" />
            <mxPoint x="270" y="550" as="targetPoint" />
          </mxGeometry>
        </mxCell>
        <mxCell id="MZcV8NC8XSPAtZuaTzx--51" value="no" style="text;html=1;strokeColor=none;fillColor=none;align=center;verticalAlign=middle;whiteSpace=wrap;rounded=0;" parent="1" vertex="1">
          <mxGeometry x="210" y="530" width="60" height="30" as="geometry" />
        </mxCell>
        <mxCell id="MZcV8NC8XSPAtZuaTzx--52" value="" style="rounded=0;whiteSpace=wrap;html=1;" parent="1" vertex="1">
          <mxGeometry x="200" y="340" width="120" height="60" as="geometry" />
        </mxCell>
        <mxCell id="MZcV8NC8XSPAtZuaTzx--53" value="cambiar tecla" style="text;html=1;strokeColor=none;fillColor=none;align=center;verticalAlign=middle;whiteSpace=wrap;rounded=0;" parent="1" vertex="1">
          <mxGeometry x="230" y="365" width="60" height="10" as="geometry" />
        </mxCell>
        <mxCell id="MZcV8NC8XSPAtZuaTzx--54" value="" style="endArrow=classic;html=1;rounded=0;entryX=0.375;entryY=1.023;entryDx=0;entryDy=0;entryPerimeter=0;" parent="1" target="MZcV8NC8XSPAtZuaTzx--52" edge="1">
          <mxGeometry width="50" height="50" relative="1" as="geometry">
            <mxPoint x="210" y="550" as="sourcePoint" />
            <mxPoint x="260" y="500" as="targetPoint" />
          </mxGeometry>
        </mxCell>
        <mxCell id="MZcV8NC8XSPAtZuaTzx--55" value="" style="endArrow=classic;html=1;rounded=0;" parent="1" edge="1">
          <mxGeometry width="50" height="50" relative="1" as="geometry">
            <mxPoint x="320" y="340" as="sourcePoint" />
            <mxPoint x="520" y="320" as="targetPoint" />
          </mxGeometry>
        </mxCell>
        <mxCell id="MZcV8NC8XSPAtZuaTzx--56" value="" style="ellipse;whiteSpace=wrap;html=1;" parent="1" vertex="1">
          <mxGeometry x="670" y="640" width="120" height="80" as="geometry" />
        </mxCell>
        <mxCell id="MZcV8NC8XSPAtZuaTzx--57" value="FIN" style="text;html=1;strokeColor=none;fillColor=none;align=center;verticalAlign=middle;whiteSpace=wrap;rounded=0;" parent="1" vertex="1">
          <mxGeometry x="700" y="660" width="60" height="30" as="geometry" />
        </mxCell>
        <mxCell id="MZcV8NC8XSPAtZuaTzx--58" value="" style="endArrow=none;html=1;rounded=0;entryX=0.418;entryY=-0.032;entryDx=0;entryDy=0;entryPerimeter=0;" parent="1" target="MZcV8NC8XSPAtZuaTzx--56" edge="1">
          <mxGeometry width="50" height="50" relative="1" as="geometry">
            <mxPoint x="720" y="440" as="sourcePoint" />
            <mxPoint x="770" y="390" as="targetPoint" />
          </mxGeometry>
        </mxCell>
        <mxCell id="MZcV8NC8XSPAtZuaTzx--59" value="Seudocodigo" style="text;html=1;strokeColor=none;fillColor=none;align=center;verticalAlign=middle;whiteSpace=wrap;rounded=0;" parent="1" vertex="1">
          <mxGeometry x="50" y="610" width="60" height="30" as="geometry" />
        </mxCell>
        <mxCell id="MZcV8NC8XSPAtZuaTzx--60" value="INICIO" style="text;html=1;strokeColor=none;fillColor=none;align=center;verticalAlign=middle;whiteSpace=wrap;rounded=0;" parent="1" vertex="1">
          <mxGeometry y="650" width="60" height="30" as="geometry" />
        </mxCell>
        <mxCell id="MZcV8NC8XSPAtZuaTzx--61" value="esta&amp;nbsp; enchufada" style="text;html=1;strokeColor=none;fillColor=none;align=center;verticalAlign=middle;whiteSpace=wrap;rounded=0;" parent="1" vertex="1">
          <mxGeometry x="20" y="680" width="60" height="30" as="geometry" />
        </mxCell>
        <mxCell id="MZcV8NC8XSPAtZuaTzx--62" value="no/si" style="text;html=1;strokeColor=none;fillColor=none;align=center;verticalAlign=middle;whiteSpace=wrap;rounded=0;" parent="1" vertex="1">
          <mxGeometry x="80" y="690" width="60" height="30" as="geometry" />
        </mxCell>
        <mxCell id="MZcV8NC8XSPAtZuaTzx--63" value="enchufar" style="text;html=1;strokeColor=none;fillColor=none;align=center;verticalAlign=middle;whiteSpace=wrap;rounded=0;" parent="1" vertex="1">
          <mxGeometry x="40" y="730" width="60" height="30" as="geometry" />
        </mxCell>
        <mxCell id="MZcV8NC8XSPAtZuaTzx--65" value="accionar tecla" style="text;html=1;strokeColor=none;fillColor=none;align=center;verticalAlign=middle;whiteSpace=wrap;rounded=0;" parent="1" vertex="1">
          <mxGeometry x="130" y="730" width="60" height="30" as="geometry" />
        </mxCell>
        <mxCell id="MZcV8NC8XSPAtZuaTzx--66" value="enciende foco" style="text;html=1;strokeColor=none;fillColor=none;align=center;verticalAlign=middle;whiteSpace=wrap;rounded=0;" parent="1" vertex="1">
          <mxGeometry x="30" y="790" width="60" height="30" as="geometry" />
        </mxCell>
        <mxCell id="MZcV8NC8XSPAtZuaTzx--67" value="no/si" style="text;html=1;strokeColor=none;fillColor=none;align=center;verticalAlign=middle;whiteSpace=wrap;rounded=0;" parent="1" vertex="1">
          <mxGeometry x="80" y="790" width="60" height="30" as="geometry" />
        </mxCell>
        <mxCell id="MZcV8NC8XSPAtZuaTzx--68" value="cambiar foco" style="text;html=1;strokeColor=none;fillColor=none;align=center;verticalAlign=middle;whiteSpace=wrap;rounded=0;" parent="1" vertex="1">
          <mxGeometry x="40" y="860" width="60" height="30" as="geometry" />
        </mxCell>
        <mxCell id="MZcV8NC8XSPAtZuaTzx--69" value="funcions tecla" style="text;html=1;strokeColor=none;fillColor=none;align=center;verticalAlign=middle;whiteSpace=wrap;rounded=0;" parent="1" vertex="1">
          <mxGeometry x="40" y="920" width="60" height="30" as="geometry" />
        </mxCell>
        <mxCell id="MZcV8NC8XSPAtZuaTzx--70" value="no/si" style="text;html=1;strokeColor=none;fillColor=none;align=center;verticalAlign=middle;whiteSpace=wrap;rounded=0;" parent="1" vertex="1">
          <mxGeometry x="90" y="920" width="60" height="30" as="geometry" />
        </mxCell>
        <mxCell id="MZcV8NC8XSPAtZuaTzx--71" value="cambiar tecla" style="text;html=1;strokeColor=none;fillColor=none;align=center;verticalAlign=middle;whiteSpace=wrap;rounded=0;" parent="1" vertex="1">
          <mxGeometry x="50" y="990" width="60" height="30" as="geometry" />
        </mxCell>
        <mxCell id="MZcV8NC8XSPAtZuaTzx--72" value="FIN" style="text;html=1;strokeColor=none;fillColor=none;align=center;verticalAlign=middle;whiteSpace=wrap;rounded=0;" parent="1" vertex="1">
          <mxGeometry x="90" y="1050" width="60" height="30" as="geometry" />
        </mxCell>
      </root>
    </mxGraphModel>
  </diagram>
</mxfile>
